<svg xmlns="http://www.w3.org/2000/svg" xmlns:xlink="http://www.w3.org/1999/xlink"><symbol id="arrow-long"><g fill="none"><path d="M26.53 6.53a.75.75 0 0 0 0-1.06L21.757.697a.75.75 0 0 0-1.06 1.06L24.939 6l-4.242 4.243a.75.75 0 0 0 1.06 1.06L26.53 6.53ZM0 6.75h26v-1.5H0v1.5Z" fill="#000"/></g></symbol><symbol id="cart"><g fill="none"><rect y="4" width="16" height="13" rx="1"/><mask id="a"><rect y="4" width="16" height="13" rx="1"/></mask><rect y="4" width="16" height="13" rx="1" stroke="#303030" stroke-width="3.2" mask="url(#a)"/><path d="M4 8V5a4 4 0 1 1 8 0v3" stroke="#303030" stroke-width="1.6"/></g></symbol><symbol id="chart"><path d="M1.1 8v7m5-15v15m5-12v12"/></symbol><symbol id="favourites-filled"><path d="M0 5.4A5.4 5.4 0 0 1 5.5 0 5.991 5.991 0 0 1 10 2a5.991 5.991 0 0 1 4.5-2A5.4 5.4 0 0 1 20 5.4c0 5.356-6.379 9.4-10 12.6C6.387 14.773 0 10.76 0 5.4Z"/></symbol><symbol id="favourites"><g fill="none"><path d="M9 15.5c-.538-.477-1.145-.973-1.788-1.5h-.008c-2.262-1.85-4.827-3.943-5.959-6.452A6.185 6.185 0 0 1 .667 5 4.492 4.492 0 0 1 5.25.5a5.132 5.132 0 0 1 2.773.82c.364.235.692.52.977.847.286-.326.615-.61.977-.848A5.127 5.127 0 0 1 12.75.5 4.492 4.492 0 0 1 17.333 5a6.186 6.186 0 0 1-.578 2.552c-1.132 2.509-3.696 4.601-5.958 6.448l-.009.007c-.643.524-1.25 1.02-1.787 1.5L9 15.5ZM5.25 2.167a2.946 2.946 0 0 0-2.083.826A2.785 2.785 0 0 0 2.333 5c.01.642.155 1.275.427 1.857A10.262 10.262 0 0 0 4.89 9.75c.827.833 1.777 1.64 2.598 2.318l.691.566.146.12.675.554.01-.01.006-.004h.005l.007-.006h.009l.015-.012.034-.028.006-.005.009-.006h.005l.007-.007.554-.454.145-.12c.234-.19.466-.38.693-.567.822-.678 1.773-1.484 2.598-2.322a10.25 10.25 0 0 0 2.131-2.892A4.531 4.531 0 0 0 15.667 5a2.786 2.786 0 0 0-.834-2 2.946 2.946 0 0 0-2.083-.833 3.323 3.323 0 0 0-2.492 1.092L9 4.71 7.742 3.26A3.323 3.323 0 0 0 5.25 2.167Z" fill="#303030"/></g></symbol><symbol id="location"><path d="M6 0A5.801 5.801 0 0 0 .205 5.795c0 3.965 5.186 9.786 5.407 10.032.207.23.57.23.776 0 .221-.246 5.407-6.067 5.407-10.032C11.795 2.599 9.195 0 6 0Zm0 8.71a2.919 2.919 0 0 1-2.915-2.915c0-1.608 1.307-2.916 2.915-2.916s2.915 1.308 2.915 2.916A2.919 2.919 0 0 1 6 8.71Z"/></symbol><symbol id="phone"><g fill="none"><path d="M15.565 11.742 13.332 9.51c-.798-.798-2.153-.479-2.472.558-.24.718-1.037 1.116-1.755.957-1.595-.399-3.748-2.472-4.147-4.147-.239-.718.24-1.515.957-1.754 1.037-.32 1.356-1.675.559-2.472L4.24.419c-.638-.559-1.595-.559-2.153 0L.573 1.934c-1.516 1.595.159 5.821 3.907 9.57 3.748 3.747 7.974 5.502 9.57 3.907l1.514-1.516c.559-.638.559-1.594 0-2.153Z" fill="#303030"/></g></symbol><symbol id="rating-star"><path d="m8.5 1.264 1.839 4.27.117.273.296.028 4.63.429-3.493 3.069-.223.196.065.29 1.022 4.535-3.998-2.374-.255-.152-.255.152-3.998 2.374 1.022-4.536.065-.29-.223-.195-3.493-3.069 4.63-.43.296-.027.117-.272L8.5 1.265Z"/></symbol><symbol id="share"><path fill-rule="evenodd" clip-rule="evenodd" d="M9.667 3.583a2.917 2.917 0 1 1 .837 2.045l-4.276 2.59a2.92 2.92 0 0 1 .02 1.487l4.353 2.572a2.917 2.917 0 1 1-.848 1.434L5.398 11.14a2.917 2.917 0 1 1-.059-4.332l4.382-2.654a2.93 2.93 0 0 1-.055-.57Zm2.916-1.25a1.25 1.25 0 1 0 0 2.5 1.25 1.25 0 0 0 0-2.5ZM3.417 7.75a1.25 1.25 0 1 0 0 2.5 1.25 1.25 0 0 0 0-2.5Zm9.166 5.417a1.25 1.25 0 1 0 0 2.5 1.25 1.25 0 0 0 0-2.5Z"/></symbol><symbol id="view-eye"><path fill-rule="evenodd" clip-rule="evenodd" d="M11.004 1.5a1 1 0 1 0-2 0v2.05c-.96.096-1.876.327-2.73.658l-.83-1.158A1 1 0 1 0 3.82 4.215l.639.892c-.531.325-1.024.686-1.473 1.07C1.248 7.666 0 9.668 0 11.5c0 1.832 1.248 3.834 2.985 5.323C4.762 18.345 7.235 19.5 10 19.5c2.764 0 5.238-1.154 7.014-2.676C18.752 15.335 20 13.333 20 11.5c0-1.833-1.248-3.836-2.986-5.324-.33-.283-.683-.552-1.058-.804l.67-.934A1 1 0 1 0 15 3.273L14.192 4.4a10.556 10.556 0 0 0-3.188-.85V1.5ZM10 7.5a4 4 0 1 0 0 8 4 4 0 0 0 0-8Z"/></symbol></svg>